<?xml version="1.0" encoding="utf-8"?>
<!-- Generator: Adobe Illustrator 16.0.4, SVG Export Plug-In . SVG Version: 6.00 Build 0)  -->
<!DOCTYPE svg PUBLIC "-//W3C//DTD SVG 1.1//EN" "http://www.w3.org/Graphics/SVG/1.1/DTD/svg11.dtd">
<svg version="1.1" id="Layer_1" xmlns="http://www.w3.org/2000/svg" xmlns:xlink="http://www.w3.org/1999/xlink" x="0px" y="0px"
	 width="150px" height="150px" viewBox="0 0 150 150" enable-background="new 0 0 150 150" xml:space="preserve">
<g>
	<path fill="#FFFFFF" d="M75.219,0.61c41.253,0,74.697,33.444,74.697,74.698c0,41.252-33.444,74.697-74.697,74.697
		c-41.253,0-74.697-33.444-74.697-74.697C0.521,34.054,33.965,0.61,75.219,0.61z"/>
</g>
<g>
	<g>
		<rect x="55.942" y="97.299" fill="none" width="66.04" height="11.525"/>
		<path fill="#231F20" d="M56.521,97.576h2.764v0.556h-2.102v1.706h1.941v0.548h-1.941v2.322h-0.663V97.576z"/>
		<path fill="#231F20" d="M75.975,100.089c0,1.767-1.074,2.703-2.383,2.703c-1.355,0-2.307-1.051-2.307-2.604
			c0-1.629,1.013-2.695,2.383-2.695C75.069,97.492,75.975,98.566,75.975,100.089z M71.993,100.173c0,1.096,0.594,2.078,1.637,2.078
			c1.051,0,1.645-0.967,1.645-2.132c0-1.021-0.533-2.086-1.637-2.086C72.541,98.033,71.993,99.046,71.993,100.173z"/>
		<path fill="#231F20" d="M90.801,102.708l-0.655-1.135c-0.267-0.434-0.434-0.716-0.594-1.013h-0.016
			c-0.145,0.297-0.289,0.571-0.556,1.021l-0.616,1.127h-0.762l1.568-2.597l-1.508-2.535h0.77l0.678,1.203
			c0.19,0.335,0.335,0.594,0.472,0.868h0.023c0.145-0.305,0.273-0.541,0.464-0.868l0.7-1.203h0.762l-1.561,2.497l1.599,2.635H90.801
			z"/>
		<path fill="#231F20" d="M106.356,100.302h-1.995v1.851h2.224v0.556h-2.886v-5.132h2.771v0.556h-2.109v1.622h1.995V100.302z"/>
		<path fill="#231F20" d="M118.714,101.901c0.297,0.183,0.731,0.335,1.188,0.335c0.678,0,1.074-0.358,1.074-0.876
			c0-0.479-0.274-0.754-0.968-1.021c-0.837-0.297-1.354-0.73-1.354-1.454c0-0.8,0.662-1.394,1.659-1.394
			c0.525,0,0.906,0.122,1.135,0.251l-0.183,0.541c-0.168-0.092-0.51-0.243-0.975-0.243c-0.7,0-0.967,0.418-0.967,0.769
			c0,0.479,0.312,0.716,1.021,0.99c0.867,0.335,1.31,0.753,1.31,1.507c0,0.792-0.587,1.478-1.797,1.478
			c-0.495,0-1.036-0.145-1.311-0.327L118.714,101.901z"/>
	</g>
	
		<rect x="31.371" y="85.002" transform="matrix(-0.7071 -0.7071 0.7071 -0.7071 0.4764 184.2618)" fill="#EF7425" width="14.062" height="14.06"/>
	<polygon fill="#F8B547" points="43.603,98.514 48.343,103.257 48.343,93.772 	"/>
	<polygon fill="#F8B547" points="33.2,98.514 28.458,93.772 28.458,103.254 	"/>
	
		<rect x="32.616" y="90.882" transform="matrix(-0.708 -0.7063 0.7063 -0.708 -7.3273 181.0365)" fill="#FFFFFF" width="2.301" height="2.302"/>
	
		<rect x="42.453" y="90.883" transform="matrix(-0.7075 -0.7067 0.7067 -0.7075 9.4153 187.963)" fill="#FFFFFF" width="2.299" height="2.301"/>
	
		<rect x="31.511" y="45.957" transform="matrix(-0.7071 -0.7071 0.7071 -0.7071 28.1853 117.3734)" fill="#153557" width="13.783" height="13.784"/>
	<polygon fill="#97D8E7" points="43.501,46.809 48.148,51.457 48.15,42.159 	"/>
	<polygon fill="#97D8E7" points="33.303,46.806 28.655,42.159 28.653,51.457 	"/>
	
		<rect x="32.454" y="51.721" transform="matrix(-0.7078 -0.7065 0.7065 -0.7078 20.0129 113.9786)" fill="#FFFFFF" width="2.255" height="2.257"/>
	
		<rect x="42.095" y="51.72" transform="matrix(-0.7081 -0.7061 0.7061 -0.7081 36.508 120.7924)" fill="#FFFFFF" width="2.254" height="2.259"/>
	<g>
		<rect x="55.942" y="41.792" fill="none" width="65.876" height="46.609"/>
		<path fill="#153557" d="M61.354,54.61v5.055h-3.523V42.306h6.382c4.084,0,6.178,1.991,6.178,6.024c0,4.034-2.093,6.28-6.178,6.28
			H61.354z M64.188,51.598c1.761,0,2.629-1.072,2.629-3.268c0-2.17-0.868-3.012-2.629-3.012h-2.833v6.28H64.188z"/>
		<path fill="#153557" d="M87.373,42.306h3.523v17.359h-3.523V42.306z"/>
		<path fill="#153557" d="M114.643,48.688l3.294-6.382h3.65l-5.004,8.858l5.004,8.501h-3.906l-3.216-5.999l-3.294,5.999h-3.65
			l5.004-8.322l-5.004-9.037h3.906L114.643,48.688z"/>
		<path fill="#153557" d="M60.282,69.62h6.688l3.906,17.359h-3.523l-0.689-3.14h-6.076l-0.689,3.14h-3.523L60.282,69.62z
			 M61.252,80.775H66l-1.762-8.246h-1.225L61.252,80.775z"/>
		<path fill="#153557" d="M87.348,81.158v5.82h-3.523V69.62h6.74c3.956,0,6.126,1.761,6.126,5.718c0,2.399-0.97,4.008-2.553,5.003
			l2.477,6.638H92.76l-2.017-5.82H87.348z M90.564,72.632h-3.217v5.514h3.268c1.762,0,2.476-1.225,2.476-2.757
			C93.091,73.729,92.249,72.632,90.564,72.632z"/>
		<path fill="#153557" d="M108.721,69.62h12.764v3.114h-4.595v14.245h-3.523V72.734h-4.646V69.62z"/>
	</g>
	
		<rect x="31.512" y="65.451" transform="matrix(-0.7071 -0.7071 0.7071 -0.7071 14.403 150.651)" fill="#EA2036" width="13.78" height="13.783"/>
	
		<rect x="37.274" y="71.214" transform="matrix(-0.7076 -0.7066 0.7066 -0.7076 14.462 150.667)" fill="#FFFFFF" width="2.255" height="2.255"/>
</g>
<g>
</g>
<g>
</g>
<g>
</g>
<g>
</g>
<g>
</g>
<g>
</g>
</svg>
